<svg xmlns="http://www.w3.org/2000/svg" width="512" height="512" viewBox="0 0 512 512">
  <defs>
    <radialGradient id="bg" cx="40%" cy="35%" r="65%">
      <stop offset="0%" stop-color="#fdba74"/>
      <stop offset="100%" stop-color="#f97316"/>
    </radialGradient>
    <filter id="s"><feDropShadow dx="0" dy="8" stdDeviation="16" flood-color="rgba(249,115,22,0.35)"/></filter>
  </defs>
  <rect width="512" height="512" rx="128" fill="url(#bg)" filter="url(#s)"/>
  <rect width="512" height="512" rx="128" fill="rgba(255,255,255,0.18)"/>
  <path d="M128 168 C128 148 144 132 164 132 L348 132 C368 132 384 148 384 168 L384 296 C384 316 368 332 348 332 L196 332 L148 380 L148 332 L164 332 C144 332 128 316 128 296 Z" fill="white" opacity="0.9"/>
  <rect x="180" y="196" width="152" height="14" rx="7" fill="#f97316" opacity="0.4"/>
  <rect x="180" y="226" width="112" height="14" rx="7" fill="#f97316" opacity="0.4"/>
  <rect x="180" y="256" width="130" height="14" rx="7" fill="#f97316" opacity="0.4"/>
</svg>